<?xml version="1.0" encoding="UTF-8"?><svg id="a" xmlns="http://www.w3.org/2000/svg" viewBox="0 0 64.29 274.31"><defs><style>.b{fill:#f7a706;}.c{fill:#e94d5f;}</style></defs><g><path class="c" d="M21.92,14.1L7.66,110.83c-.09,.58,.32,1.13,.9,1.21l4.94,.73c.58,.09,1.13-.32,1.21-.9L27.07,28.09c.09-.58,.63-.99,1.21-.9l4.94,.73c.58,.09,.99,.63,.9,1.21L8.62,211.77c-.09,.58,.32,1.13,.9,1.21l26.13,3.85c.58,.09,1.13-.32,1.21-.9L64.28,20.35c.09-.58-.32-1.13-.9-1.21l-26.12-3.85c-.58-.09-1.13,.32-1.21,.9l-.56,3.77c-.09,.58-.63,.99-1.21,.9l-4.94-.73c-.58-.09-.99-.63-.9-1.21l.55-3.77c.09-.58-.32-1.13-.9-1.21l-4.94-.73c-.58-.09-1.13,.32-1.21,.9Z"/><path class="c" d="M39.45,11.48l.9-6.13c.11-.72,.78-1.23,1.51-1.12l20.72,3.05c.72,.11,1.23,.78,1.12,1.51l-.9,6.13c-.11,.72-.78,1.23-1.51,1.12l-20.72-3.05c-.72-.11-1.23-.78-1.12-1.51Z"/><path class="c" d="M35.25,219.56l-26.13-3.85c-.58-.09-1.13,.32-1.21,.9l-4.83,32.77c-.03,.19,0,.39,.07,.57l9.85,23.7c.31,.75,1.3,.89,1.82,.27l16.27-19.85c.12-.15,.2-.33,.23-.52l4.83-32.77c.09-.58-.32-1.13-.9-1.21Z"/></g><g><path class="b" d="M18.85,9.88L4.59,106.61c-.09,.58,.32,1.13,.9,1.21l4.94,.73c.58,.09,1.13-.32,1.21-.9L24,23.87c.09-.58,.63-.99,1.21-.9l4.94,.73c.58,.09,.99,.63,.9,1.21L5.55,207.55c-.09,.58,.32,1.13,.9,1.21l26.13,3.85c.58,.09,1.13-.32,1.21-.9L61.21,16.13c.09-.58-.32-1.13-.9-1.21l-26.12-3.85c-.58-.09-1.13,.32-1.21,.9l-.56,3.77c-.09,.58-.63,.99-1.21,.9l-4.94-.73c-.58-.09-.99-.63-.9-1.21l.55-3.77c.09-.58-.32-1.13-.9-1.21l-4.94-.73c-.58-.09-1.13,.32-1.21,.9Z"/><path class="b" d="M36.38,7.26l.9-6.13c.11-.72,.78-1.23,1.51-1.12l20.72,3.05c.72,.11,1.23,.78,1.12,1.51l-.9,6.13c-.11,.72-.78,1.23-1.51,1.12l-20.72-3.05c-.72-.11-1.23-.78-1.12-1.51Z"/><path class="b" d="M32.18,215.34l-26.13-3.85c-.58-.09-1.13,.32-1.21,.9L.01,245.16c-.03,.19,0,.39,.07,.57l9.85,23.7c.31,.75,1.3,.89,1.82,.27l16.27-19.85c.12-.15,.2-.33,.23-.52l4.83-32.77c.09-.58-.32-1.13-.9-1.21Z"/></g></svg>